<svg xmlns="http://www.w3.org/2000/svg" xmlns:xlink="http://www.w3.org/1999/xlink" viewBox="0 0 313.21 166.75"><defs><style>.cls-1{fill:url(#linear-gradient);}.cls-2{fill:#1d76bb;}.cls-3{fill:url(#linear-gradient-2);}.cls-4{fill:url(#linear-gradient-3);}.cls-5{fill:url(#linear-gradient-4);}.cls-6{fill:url(#linear-gradient-5);}.cls-7{fill:url(#linear-gradient-6);}.cls-8{fill:url(#linear-gradient-7);}.cls-9{fill:url(#linear-gradient-8);}.cls-10{fill:#928d8c;}</style><linearGradient id="linear-gradient" x1="-435.13" y1="573.36" x2="-359.34" y2="573.36" gradientTransform="translate(-606.59 185.44) rotate(-135)" gradientUnits="userSpaceOnUse"><stop offset="0" stop-color="#00a79c"/><stop offset="1" stop-color="#afe0e5"/></linearGradient><linearGradient id="linear-gradient-2" x1="79.72" y1="96.63" x2="79.72" y2="48.32" gradientUnits="userSpaceOnUse"><stop offset="0" stop-color="#50a4bc"/><stop offset="1" stop-color="#58bfbc"/></linearGradient><linearGradient id="linear-gradient-3" y1="87.03" x2="159.44" y2="87.03" gradientUnits="userSpaceOnUse"><stop offset="0" stop-color="#28a8e0"/><stop offset="1" stop-color="#1d76bb"/></linearGradient><linearGradient id="linear-gradient-4" x1="52.11" y1="139.14" x2="107.33" y2="139.14" gradientTransform="translate(121.74 -15.62) rotate(45)" xlink:href="#linear-gradient-3"/><linearGradient id="linear-gradient-5" x1="79.72" y1="83.16" x2="79.72" y2="31.47" xlink:href="#linear-gradient-2"/><linearGradient id="linear-gradient-6" x1="201.28" y1="45.51" x2="201.28" y2="78.26" xlink:href="#linear-gradient-2"/><linearGradient id="linear-gradient-7" x1="241.1" y1="45.51" x2="241.1" y2="78.26" xlink:href="#linear-gradient-2"/><linearGradient id="linear-gradient-8" x1="296.84" y1="45.51" x2="296.84" y2="78.26" xlink:href="#linear-gradient-2"/></defs><title>08</title><g id="Layer_2" data-name="Layer 2"><g id="Layer_1-2" data-name="Layer 1"><polygon class="cls-1" points="26.13 60.9 53.67 88.44 71.58 70.53 79.72 78.66 87.85 70.53 105.77 88.44 133.31 60.9 105.77 33.35 87.85 51.27 79.72 43.13 71.58 51.27 53.67 33.35 26.13 60.9"/><polygon class="cls-2" points="0 87.03 40.97 128 67.62 101.35 79.72 113.45 91.82 101.35 118.47 128 159.44 87.03 118.47 46.05 91.82 72.7 79.72 60.6 67.62 72.7 40.97 46.05 0 87.03"/><polygon class="cls-3" points="26.13 60.9 53.67 88.44 71.58 70.53 79.72 78.66 87.85 70.53 105.77 88.44 133.31 60.9 105.77 33.35 87.85 51.27 79.72 43.13 71.58 51.27 53.67 33.35 26.13 60.9"/><polygon class="cls-4" points="0 87.03 40.97 128 67.62 101.35 79.72 113.45 91.82 101.35 118.47 128 159.44 87.03 118.47 46.05 91.82 72.7 79.72 60.6 67.62 72.7 40.97 46.05 0 87.03"/><rect class="cls-5" x="60.19" y="119.61" width="39.05" height="39.05" transform="translate(-75.04 97.13) rotate(-45)"/><polygon class="cls-6" points="79.72 19.93 90.55 30.76 100.52 20.8 79.72 0 58.92 20.8 68.88 30.76 79.72 19.93"/><path class="cls-7" d="M187.16,83.11a3.71,3.71,0,0,1-4,3.12c-2.25,0-2.82-1.12-2.29-3.12L193.1,37.64h21c4.94,0,8.93,3.5,7.44,9.06L220.36,51c-1.57,5.87-7.25,8.87-12.24,8.87h-5.75L211,80a4.92,4.92,0,0,1,.68,3.31,4.16,4.16,0,0,1-4,2.93,2.33,2.33,0,0,1-2.27-1.75l-10.64-24.6h-1.44Zm7.9-29.48h13.86c1.74,0,4.52-.12,5.19-2.62l1.16-4.31c.67-2.5-1.81-2.81-3.68-2.81H197.67Z"/><path class="cls-8" d="M249.44,40.83c.95-1.69,2-3.19,4-3.19s2.39,1.56,2.39,3.19l.72,42.28c0,1.5-2.08,3.12-3.83,3.12-1.94,0-2.5-1.62-2.54-3.12l-.3-7.49h-13.3l-4.38,7.49c-.84,1.5-2.27,3.12-4.21,3.12a2.17,2.17,0,0,1-2.16-3.12Zm.13,11.61h-.12L240,69.37h9.81Z"/><path class="cls-9" d="M289.38,83.11a3.71,3.71,0,0,1-4,3.12c-2.25,0-2.82-1.12-2.29-3.12l5.36-20-8-16,1.71-6.38a3.72,3.72,0,0,1,4-3.12c2.25,0,2.82,1.13,2.28,3.12L287.29,45l6,11.93L305.64,45l1.14-4.25a3.72,3.72,0,0,1,4-3.12c2.24,0,2.82,1.13,2.28,3.12l-1.71,6.38-16.58,16Z"/><path class="cls-10" d="M186.07,96.82l-8.49,31.71h-1.82l8.5-31.71H172.05l.48-1.77h26.22l-.47,1.77Z"/><path class="cls-10" d="M204.77,95.05h21.59l-.47,1.77H206.16l-3.51,13.1H218.4l-.47,1.78H202.18l-4,15.06h19.77l-.47,1.77H195.8Z"/><path class="cls-10" d="M255.82,119.4a22.4,22.4,0,0,1-18.16,9.7c-9.62,0-15.26-6.79-12.42-17.4S237.3,94.38,247,94.38c7.76,0,11.86,4.17,12.66,8.85l-1.86.53c-.49-2.11-2.51-7.61-11.22-7.61-8.9,0-16.93,5.84-19.53,15.55s2.56,15.64,11,15.64a20.34,20.34,0,0,0,16.09-8.42Z"/><path class="cls-10" d="M287.59,111.7h-21.2l-4.51,16.83H260l9-33.48h1.87l-4,14.87h21.2l4-14.87h1.86l-9,33.48h-1.86Z"/></g></g></svg>