<svg xmlns="http://www.w3.org/2000/svg" xmlns:xlink="http://www.w3.org/1999/xlink" viewBox="0 0 237.07 193.83"><defs><style>.cls-1{fill:url(#linear-gradient);}.cls-2{fill:url(#linear-gradient-2);}.cls-3{fill:url(#linear-gradient-3);}.cls-4{fill:url(#linear-gradient-4);}.cls-5{fill:url(#linear-gradient-5);}.cls-6{fill:url(#linear-gradient-6);}.cls-7{fill:url(#linear-gradient-7);}.cls-8{fill:url(#linear-gradient-8);}.cls-9{fill:url(#linear-gradient-9);}.cls-10{fill:#928d8c;}.cls-11{fill:#e2e2e2;}.cls-12{fill:url(#linear-gradient-10);}</style><linearGradient id="linear-gradient" x1="9.8" y1="175.2" x2="9.8" y2="194.09" gradientUnits="userSpaceOnUse"><stop offset="0" stop-color="#50a4bc"/><stop offset="1" stop-color="#58bfbc"/></linearGradient><linearGradient id="linear-gradient-2" x1="30.06" y1="175.2" x2="30.06" y2="194.09" xlink:href="#linear-gradient"/><linearGradient id="linear-gradient-3" x1="47.69" y1="175.2" x2="47.69" y2="194.09" xlink:href="#linear-gradient"/><linearGradient id="linear-gradient-4" x1="64.83" y1="175.2" x2="64.83" y2="194.09" xlink:href="#linear-gradient"/><linearGradient id="linear-gradient-5" x1="89.02" y1="175.2" x2="89.02" y2="194.09" xlink:href="#linear-gradient"/><linearGradient id="linear-gradient-6" x1="107.53" y1="175.2" x2="107.53" y2="194.09" xlink:href="#linear-gradient"/><linearGradient id="linear-gradient-7" x1="121.44" y1="175.2" x2="121.44" y2="194.09" xlink:href="#linear-gradient"/><linearGradient id="linear-gradient-8" x1="135.1" y1="175.2" x2="135.1" y2="194.09" xlink:href="#linear-gradient"/><linearGradient id="linear-gradient-9" x1="153.45" y1="175.2" x2="153.45" y2="194.09" xlink:href="#linear-gradient"/><linearGradient id="linear-gradient-10" x1="124" y1="3.01" x2="124" y2="163.17" xlink:href="#linear-gradient"/></defs><title>01</title><g id="Layer_2" data-name="Layer 2"><g id="Layer_1-2" data-name="Layer 1"><path class="cls-1" d="M8.46,172.31c6.38,0,11.15,4.23,11.15,10.67s-4.8,10.48-11.09,10.48H0V172.31Zm-.18,17.26c3.69,0,7.1-2,7.1-6.59s-3.41-6.77-7.16-6.77h-4v13.36Z"/><path class="cls-2" d="M37.84,185.58c0,5.68-3.08,8.22-7.79,8.22s-7.77-2.54-7.77-8.22v-9h4v9.4c0,2.93,1.27,4.23,3.78,4.23s3.77-1.3,3.77-4.23v-9.4h4Z"/><path class="cls-3" d="M44.17,190,43,193.46H38.91l6.32-16.92h4.92l6.32,16.92H52.36L51.15,190Zm4.89-6.1c-1-2.78-1.33-4-1.36-4.08h-.09l-1.45,4.26-.84,2.5H50Z"/><path class="cls-4" d="M58.89,176.54h4v13.21h7.89v3.71H58.89Z"/><path class="cls-5" d="M88.64,172.31c5.07,0,8.16,2.57,8.16,7.07s-3.09,7-8.16,7h-3.2v7h-4.2V172.31Zm.12,10.43c2.6,0,3.84-1.24,3.84-3.3s-1.3-3.29-3.84-3.29H85.44v6.59Z"/><path class="cls-6" d="M107.53,176.21c5.23,0,9.07,3.69,9.07,8.79s-3.84,8.8-9.07,8.8-9.06-3.66-9.06-8.8S102.3,176.21,107.53,176.21Zm0,14a5.15,5.15,0,1,0-5-5.17A4.87,4.87,0,0,0,107.53,190.17Z"/><path class="cls-7" d="M119.45,176.54h4v16.92h-4Z"/><path class="cls-8" d="M138.85,193.46l-7.62-10.78h-.09s.06,1.84.06,3.77v7h-4V176.54h4.11L138.94,187H139s0-1.6,0-3.33v-7.16h4v16.92Z"/><path class="cls-9" d="M155.45,180.26v13.2h-4v-13.2H145.9v-3.72H161v3.72Z"/><path class="cls-10" d="M180.42,174.61v18.85h-2.48V174.61h-7.25v-2.3h17v2.3Z"/><path class="cls-10" d="M188.71,176.54h11.87v2.21h-9.51v4.89h7.34v2.15h-7.34v5.47h9.67v2.2h-12Z"/><path class="cls-10" d="M219.81,188.87a8.92,8.92,0,1,1-8.07-12.66,8.23,8.23,0,0,1,7.95,5l-2.24.6a6.22,6.22,0,0,0-5.68-3.41,6.63,6.63,0,0,0,0,13.26,6.4,6.4,0,0,0,5.8-3.38Z"/><path class="cls-10" d="M234.72,193.46v-7.61h-9.28v7.61h-2.36V176.54h2.36v7.1h9.28v-7.1h2.35v16.92Z"/><path class="cls-11" d="M114.44,45.12,98.71,29.39l15.73-15.73V0L84.21,30.23l18.27,17.85-23,23L68.27,59.83,84,44.1V30.44L53.77,60.67,72,78.52l-1.26,1.26h0L40.33,110.22v39.05l30.44-30.44L84,105.6l30.44-30.44ZM185.83,0,155.59,30.23l18.27,17.85-23,23L139.65,59.83,155.38,44.1V30.44L125.15,60.67l18.27,17.85-1.26,1.26h0l-30.44,30.44v39.05l30.44-30.44,13.22-13.23,30.45-30.44v-30L170.09,29.39l15.74-15.73Z"/><path class="cls-12" d="M125.36,45.12,109.63,29.39l15.73-15.73V0L95.13,30.23l18.26,17.85-23,23L79.18,59.83,94.92,44.1V30.44L64.69,60.67,83,78.52l-1.26,1.26h0L51.25,110.22v39.05l30.44-30.44L94.92,105.6l30.44-30.44ZM196.74,0,166.51,30.23l18.27,17.85-23,23L150.57,59.83,166.3,44.1V30.44L136.07,60.67l18.27,17.85-1.27,1.26h0l-30.44,30.44v39.05l30.44-30.44L166.3,105.6l30.44-30.44v-30L181,29.39l15.73-15.73Z"/></g></g></svg>