<svg xmlns="http://www.w3.org/2000/svg" xmlns:xlink="http://www.w3.org/1999/xlink" viewBox="0 0 345.64 98.26"><defs><style>.cls-1{fill:url(#linear-gradient);}.cls-2{fill:url(#linear-gradient-2);}.cls-3{fill:url(#linear-gradient-3);}.cls-4{fill:url(#linear-gradient-4);}.cls-5{fill:url(#linear-gradient-5);}.cls-6{fill:url(#linear-gradient-6);}.cls-7{fill:url(#linear-gradient-7);}.cls-8{fill:url(#linear-gradient-8);}.cls-9{fill:url(#linear-gradient-9);}.cls-10{fill:#1d76bb;}.cls-11{fill:#928d8c;}</style><linearGradient id="linear-gradient" x1="102.76" y1="13.49" x2="102.76" y2="83.94" gradientUnits="userSpaceOnUse"><stop offset="0" stop-color="#28a8e0"/><stop offset="1" stop-color="#1d76bb"/></linearGradient><linearGradient id="linear-gradient-2" x1="102.73" y1="39.25" x2="102.73" y2="3.84" xlink:href="#linear-gradient"/><linearGradient id="linear-gradient-3" x1="-81.09" y1="-198.32" x2="-81.09" y2="-233.73" gradientTransform="translate(26.83 239.69) rotate(45)" xlink:href="#linear-gradient"/><linearGradient id="linear-gradient-4" x1="-379.25" y1="-236.4" x2="-379.25" y2="-271.81" gradientTransform="translate(-123.76 428.34) rotate(90)" xlink:href="#linear-gradient"/><linearGradient id="linear-gradient-5" x1="-616.82" y1="-52.43" x2="-616.82" y2="-87.83" gradientTransform="translate(-363.45 455.18) rotate(135)" xlink:href="#linear-gradient"/><linearGradient id="linear-gradient-6" x1="-654.9" y1="245.58" x2="-654.9" y2="210.17" gradientTransform="translate(-552.1 304.58) rotate(180)" xlink:href="#linear-gradient"/><linearGradient id="linear-gradient-7" x1="-470.92" y1="483.3" x2="-470.92" y2="447.9" gradientTransform="translate(-578.93 64.89) rotate(-135)" xlink:href="#linear-gradient"/><linearGradient id="linear-gradient-8" x1="-172.92" y1="521.23" x2="-172.92" y2="485.82" gradientTransform="translate(-428.34 -123.76) rotate(-90)" xlink:href="#linear-gradient"/><linearGradient id="linear-gradient-9" x1="64.81" y1="337.41" x2="64.81" y2="302" gradientTransform="translate(-188.65 -150.59) rotate(-45)" xlink:href="#linear-gradient"/></defs><title>04</title><g id="Layer_2" data-name="Layer 2"><g id="Layer_1-2" data-name="Layer 1"><path class="cls-1" d="M91.29,37.18,72.83,22A39.83,39.83,0,0,0,64,38.62l22.86,7.44A16,16,0,0,1,91.29,37.18Zm-4.6,11.57-23.8,2.3a39.75,39.75,0,0,0,5.52,17.81L89.82,58A15.93,15.93,0,0,1,86.69,48.75Zm16-16.36h.35L100.77,8.56A39.77,39.77,0,0,0,82.61,14L93.5,35.32A16,16,0,0,1,102.73,32.39Zm11.93,5.33L129.91,19.2A39.83,39.83,0,0,0,113.4,10L106,32.72A16,16,0,0,1,114.66,37.72ZM76.24,78.31a39.78,39.78,0,0,0,16.29,8.75L100,64.24a16,16,0,0,1-8.51-4.39Zm42.55-29.87c0,.36,0,.72-.06,1.08l23.9-2.31a39.69,39.69,0,0,0-5-18.1L116.35,40A16,16,0,0,1,118.79,48.44Zm-5.37,12,18.52,15.25a39.76,39.76,0,0,0,9.16-16.16L118.35,52.1A16.06,16.06,0,0,1,113.42,60.4Zm-10.69,4.1-.42,0,2.31,23.85a39.68,39.68,0,0,0,17.74-5.12L111.5,61.88A16,16,0,0,1,102.73,64.5Z"/><polygon class="cls-2" points="94.5 0 102.73 39.52 110.96 0 94.5 0"/><polygon class="cls-3" points="131.66 8.54 109.53 42.31 143.3 20.19 131.66 8.54"/><polygon class="cls-4" points="151.89 40.86 112.37 49.09 151.89 57.33 151.89 40.86"/><polygon class="cls-5" points="143.35 78.02 109.58 55.9 131.7 89.66 143.35 78.02"/><polygon class="cls-6" points="111.03 98.26 102.8 58.73 94.56 98.25 111.03 98.26"/><polygon class="cls-7" points="73.87 89.72 96 55.95 62.23 78.07 73.87 89.72"/><polygon class="cls-8" points="53.63 57.4 93.16 49.16 53.64 40.93 53.63 57.4"/><polygon class="cls-9" points="62.18 20.24 95.95 42.36 73.82 8.59 62.18 20.24"/><path class="cls-10" d="M114.12,48.44a11.39,11.39,0,1,1-11.39-11.39A11.39,11.39,0,0,1,114.12,48.44Z"/><path class="cls-10" d="M19.23,20.53l-1,11.95h23.1L40.08,46.4H17L15,69.06H0L5.46,6.61h44.7L48.94,20.53Z"/><path class="cls-10" d="M224.49,50.59a34.45,34.45,0,0,1-31.43,19.72c-18.64,0-31.24-13.11-29.53-32.65,1.66-19,16.57-32.3,35.21-32.3,14.37,0,24.2,7.94,27.51,18l-15.16,4c-2.77-5-7.6-7.94-14.29-7.94-10.17,0-17.25,7.49-18.2,18.37-1,11.07,5.26,18.29,14.9,18.29a18.39,18.39,0,0,0,16.62-9.45Z"/><path class="cls-10" d="M286.4,41.23C284.75,60.05,273,70.31,256.65,70.31S230.33,60.05,232,41.23l3-34.62h15.17l-3,34.17c-.94,10.71,2.76,15.34,10.88,15.34s12.63-4.63,13.56-15.34l3-34.17h14.81Z"/><path class="cls-10" d="M306.79,49.61c.84,4.73,5,7.5,11.75,7.5,5.71,0,9.36-2,9.71-6,.52-6-7-5.62-14.51-7.49-8.3-2.06-18.48-6-17.33-19.19,1.12-12.75,11.31-19.09,25.32-19.09,12.75,0,21.4,5.18,23.91,16.33L331,25.53c-1.12-4.55-4.47-7-10.72-7-5.71,0-8.31,2.23-8.6,5.53-.46,5.26,5.44,6.06,14,7.85,9,1.78,18.86,5.71,17.69,19.18-1.13,12.85-10.7,19.27-26,19.27-10.88,0-22.9-3.3-25.29-16.86Z"/><path class="cls-11" d="M169.64,78.36h.81L169.17,93h-.81Z"/><path class="cls-11" d="M174.76,79.51h0s-.09,1.65-.24,3.42l-.88,10h-.81l1.28-14.61h.81l8.56,13.36h0s.08-1.65.23-3.38l.88-10h.81L184.12,93h-.81Z"/><path class="cls-11" d="M193.52,78.36c4.62,0,7.52,2.82,7.12,7.37S196.84,93,192.43,93h-4.67L189,78.36Zm-1,13.84c3.8,0,7-2.21,7.37-6.47s-2.36-6.6-6.41-6.6h-3.66L188.64,92.2Z"/><path class="cls-11" d="M214.22,87.07c-.35,4-2.33,6.15-6.11,6.15s-5.36-2.15-5-6.15l.76-8.71h.79l-.77,8.79c-.3,3.49,1,5.3,4.3,5.3s4.94-1.81,5.24-5.3l.77-8.79h.8Z"/><path class="cls-11" d="M217.29,88.82c-.12,2.59,1.87,3.65,4.44,3.65s4.14-1,4.33-3.19c.25-2.93-2.49-3.11-4.27-3.53-2-.44-4.48-1-4.22-3.93.2-2.33,2-3.75,5-3.75,2.59,0,4.41,1.08,4.76,3.55l-.79.2c-.25-1.87-1.51-3-4-3s-3.91,1.11-4.07,2.94c-.21,2.3,1.79,2.86,3.86,3.28s4.91,1,4.62,4.22c-.23,2.63-2.18,4-5.27,4-2.4,0-5.13-.83-5.1-4.19Z"/><path class="cls-11" d="M234.92,79.13,233.71,93h-.79l1.21-13.84h-5.32l.06-.77h11.44l-.06.77Z"/><path class="cls-11" d="M246.93,86.77c-.38,0-1.28,0-1.63,0H243L242.48,93h-.81L243,78.36h3.94c3.3,0,5.12,1.57,4.88,4.36-.21,2.38-1.74,3.59-4,3.93L251,93h-1Zm-.59-.69c2.53,0,4.41-.81,4.64-3.36s-1.44-3.61-4.18-3.61h-3.11l-.61,7Z"/><path class="cls-11" d="M258.28,93h-.79l.58-6.64-5.06-8H254l3.32,5.22,1.29,2h0s.61-.79,1.55-2l4.3-5.26h.92l-6.49,8Z"/></g></g></svg>