<svg xmlns="http://www.w3.org/2000/svg" xmlns:xlink="http://www.w3.org/1999/xlink" viewBox="0 0 169.25 130.8"><defs><style>.cls-1{fill:#928d8c;}.cls-2{fill:url(#linear-gradient);}</style><linearGradient id="linear-gradient" x1="95.74" y1="18.42" x2="-23.5" y2="93.47" gradientUnits="userSpaceOnUse"><stop offset="0" stop-color="#28a8e0"/><stop offset="1" stop-color="#1d76bb"/></linearGradient></defs><title>02</title><g id="Layer_2" data-name="Layer 2"><g id="Layer_1-2" data-name="Layer 1"><path class="cls-1" d="M97.58,75.18V56.8h8.8A3.56,3.56,0,0,1,109,57.91a3.64,3.64,0,0,1,1.1,2.64V65.2a3.72,3.72,0,0,1-3.72,3.72h-6.29v6.26a1.21,1.21,0,0,1-.36.88,1.19,1.19,0,0,1-.88.36,1.25,1.25,0,0,1-.9-.36A1.22,1.22,0,0,1,97.58,75.18Zm2.51-8.74h6.29a1.19,1.19,0,0,0,.87-.36,1.16,1.16,0,0,0,.37-.88V60.55a1.25,1.25,0,0,0-1.24-1.24h-6.29Z"/><path class="cls-1" d="M113.58,56.8h10A1.26,1.26,0,0,1,124.86,58a1.2,1.2,0,0,1-.37.89,1.13,1.13,0,0,1-.87.38h-3.75V73.94h3.75a1.19,1.19,0,0,1,.88.36,1.21,1.21,0,0,1,.36.88,1.25,1.25,0,0,1-1.24,1.24h-10a1.19,1.19,0,0,1-.87-.36,1.26,1.26,0,0,1,0-1.76,1.19,1.19,0,0,1,.87-.36h3.81V59.31h-3.81a1.16,1.16,0,0,1-.87-.37,1.19,1.19,0,0,1-.36-.87,1.25,1.25,0,0,1,.36-.9A1.16,1.16,0,0,1,113.58,56.8Z"/><path class="cls-1" d="M133.38,69.07l-3.94,6.74a1.12,1.12,0,0,1-1.05.59,1.22,1.22,0,0,1-.91-.38,1.17,1.17,0,0,1-.37-.84,1.34,1.34,0,0,1,.22-.72L132,66.62l-4.53-7.8a1.65,1.65,0,0,1-.27-.84,1.12,1.12,0,0,1,.37-.83,1.2,1.2,0,0,1,.86-.36,1.13,1.13,0,0,1,1.06.59l4,6.73,3.93-6.7a1.14,1.14,0,0,1,1-.61,1.25,1.25,0,0,1,.9.36,1.1,1.1,0,0,1,.39.85,1.39,1.39,0,0,1-.19.67l-4.65,7.91,4.62,8a1.28,1.28,0,0,1-.19,1.53,1.22,1.22,0,0,1-.88.35,1.14,1.14,0,0,1-1.07-.61Z"/><path class="cls-1" d="M153.12,59.31h-8.77v6h3.78a1.26,1.26,0,0,1,1.24,1.24,1.25,1.25,0,0,1-.36.9,1.23,1.23,0,0,1-.88.37h-3.78v6.08h8.8a1.25,1.25,0,0,1,1.24,1.24,1.19,1.19,0,0,1-.38.88,1.25,1.25,0,0,1-.89.36H141.87V56.8h11.25a1.3,1.3,0,0,1,1.27,1.27,1.17,1.17,0,0,1-.38.87A1.22,1.22,0,0,1,153.12,59.31Zm1.25.87a1.22,1.22,0,0,1-.35.88,1.2,1.2,0,0,1-.89.36,1.21,1.21,0,0,1-1.22-1.24V58.07a1.2,1.2,0,0,1,.35-.88,1.19,1.19,0,0,1,.87-.36,1.2,1.2,0,0,1,.89.36,1.24,1.24,0,0,1,.35.88Zm0,15A1.24,1.24,0,0,1,154,76a1.2,1.2,0,0,1-.89.36,1.19,1.19,0,0,1-.87-.36,1.2,1.2,0,0,1-.35-.88V73a1.21,1.21,0,0,1,1.22-1.24,1.2,1.2,0,0,1,.89.36,1.22,1.22,0,0,1,.35.88Z"/><path class="cls-1" d="M156.63,76.42V58a1.26,1.26,0,0,1,1.24-1.24,1.16,1.16,0,0,1,.87.37,1.19,1.19,0,0,1,.37.87v15.9h8.77a1.25,1.25,0,0,1,.89.36,1.21,1.21,0,0,1,0,1.76,1.25,1.25,0,0,1-.89.36Zm12.62-1.27a1.24,1.24,0,0,1-.35.88,1.2,1.2,0,0,1-.89.36,1.19,1.19,0,0,1-.87-.36,1.2,1.2,0,0,1-.35-.88V73A1.21,1.21,0,0,1,168,71.8a1.2,1.2,0,0,1,.89.36,1.22,1.22,0,0,1,.35.88Z"/><path class="cls-1" d="M97.58,86.38V83H110.1v3.38a1.16,1.16,0,0,1-.37.88,1.19,1.19,0,0,1-.87.36,1.22,1.22,0,0,1-.89-.37,1.17,1.17,0,0,1-.38-.87v-.9h-2.51v15.87a1.16,1.16,0,0,1-.37.88,1.19,1.19,0,0,1-.87.36,1.25,1.25,0,0,1-.9-.36,1.2,1.2,0,0,1-.37-.88V85.51h-2.51v.87a1.23,1.23,0,0,1-1.24,1.24,1.22,1.22,0,0,1-.88-.36A1.19,1.19,0,0,1,97.58,86.38Z"/><path class="cls-1" d="M123.59,85.51h-8.77v6h3.78a1.16,1.16,0,0,1,.87.37,1.19,1.19,0,0,1,.37.87,1.25,1.25,0,0,1-.36.9,1.16,1.16,0,0,1-.88.37h-3.78v6.08h8.8a1.25,1.25,0,0,1,1.24,1.24,1.16,1.16,0,0,1-.37.88,1.25,1.25,0,0,1-.9.36H112.35V83h11.24a1.23,1.23,0,0,1,.9.38,1.22,1.22,0,0,1,.37.89,1.16,1.16,0,0,1-.37.87A1.22,1.22,0,0,1,123.59,85.51Zm1.26.87a1.19,1.19,0,0,1-.36.88,1.18,1.18,0,0,1-.88.36,1.15,1.15,0,0,1-.87-.36,1.19,1.19,0,0,1-.36-.88V84.27a1.21,1.21,0,0,1,.36-.88,1.15,1.15,0,0,1,.87-.36,1.18,1.18,0,0,1,.88.36,1.21,1.21,0,0,1,.36.88Zm0,15a1.19,1.19,0,0,1-.36.88,1.18,1.18,0,0,1-.88.36,1.15,1.15,0,0,1-.87-.36,1.19,1.19,0,0,1-.36-.88V99.24a1.21,1.21,0,0,1,.36-.88,1.15,1.15,0,0,1,.87-.36,1.18,1.18,0,0,1,.88.36,1.21,1.21,0,0,1,.36.88Z"/><path class="cls-1" d="M133.85,100.14h4.48a1.25,1.25,0,0,1,.89.36,1.19,1.19,0,0,1,.38.88,1.17,1.17,0,0,1-.38.88,1.25,1.25,0,0,1-.89.36h-4.64a3.62,3.62,0,0,1-1.83-.56,3.31,3.31,0,0,1-1.31-1.25l-2.87-5.54a5.63,5.63,0,0,1-.57-2.45,5.07,5.07,0,0,1,.54-2.41l2.9-5.47a3.82,3.82,0,0,1,1.28-1.36,3.09,3.09,0,0,1,1.68-.58h4.9a1.2,1.2,0,0,1,.88.37,1.22,1.22,0,0,1,.36.87,1.23,1.23,0,0,1-.36.89,1.17,1.17,0,0,1-.88.38h-4.72a1.1,1.1,0,0,0-1,.7L130,91.34a3,3,0,0,0-.33,1.44,3.26,3.26,0,0,0,.35,1.53l2.63,5A1.26,1.26,0,0,0,133.85,100.14Zm5.73,1.21a1.21,1.21,0,0,1-1.24,1.24,1.21,1.21,0,0,1-1.22-1.24V99.24a1.2,1.2,0,0,1,.35-.88,1.19,1.19,0,0,1,.87-.36,1.21,1.21,0,0,1,.89.36,1.24,1.24,0,0,1,.35.88Zm.06-15a1.21,1.21,0,0,1-1.24,1.24,1.17,1.17,0,0,1-.87-.36,1.19,1.19,0,0,1-.36-.88V84.27a1.21,1.21,0,0,1,.36-.88,1.17,1.17,0,0,1,.87-.36,1.21,1.21,0,0,1,.89.36,1.24,1.24,0,0,1,.35.88Z"/><path class="cls-1" d="M141.87,101.38V84.24a1.22,1.22,0,0,1,.36-.87,1.2,1.2,0,0,1,.88-.37,1.23,1.23,0,0,1,.87.37,1.19,1.19,0,0,1,.37.87v7.31h7.56V84.24a1.22,1.22,0,0,1,.36-.87,1.22,1.22,0,0,1,1.75,0,1.22,1.22,0,0,1,.37.9v17.11a1.17,1.17,0,0,1-.38.87,1.18,1.18,0,0,1-.86.37,1.2,1.2,0,0,1-.89-.36,1.18,1.18,0,0,1-.35-.88V94h-7.53v7.35a1.17,1.17,0,0,1-.38.87,1.22,1.22,0,0,1-.89.37,1.19,1.19,0,0,1-.87-.36A1.16,1.16,0,0,1,141.87,101.38Z"/><path class="cls-2" d="M63.4,30.86V16.12A40.05,40.05,0,0,0,0,48.71c0,.07,0,.14,0,.21H0V130.8l25.19-16.17L18.4,82.39A40,40,0,0,0,76,30.86ZM40.1,74.74a26,26,0,1,1,26-26A26,26,0,0,1,40.1,74.74Zm54-44.3V15.75H78.94V30.86h14.7v8.61h-9v9.24h9.24v-9h9V30.44ZM78.31,0H63.2V15.12H78.31Z"/></g></g></svg>