<svg xmlns="http://www.w3.org/2000/svg" xmlns:xlink="http://www.w3.org/1999/xlink" viewBox="0 0 164.5 196.82"><defs><style>.cls-1{fill:url(#linear-gradient);}.cls-2{fill:url(#linear-gradient-2);}.cls-3{fill:url(#linear-gradient-3);}.cls-4{fill:url(#linear-gradient-4);}.cls-5{fill:url(#linear-gradient-5);}.cls-6{fill:url(#linear-gradient-6);}.cls-7{fill:url(#linear-gradient-7);}.cls-8{fill:url(#linear-gradient-8);}.cls-9{fill:#928d8c;}.cls-10{fill:url(#linear-gradient-9);}.cls-11{fill:url(#linear-gradient-10);}.cls-12{fill:url(#linear-gradient-11);}.cls-13{fill:url(#linear-gradient-12);}</style><linearGradient id="linear-gradient" x1="45.09" y1="0.51" x2="45.09" y2="129.97" gradientUnits="userSpaceOnUse"><stop offset="0" stop-color="#00a79c"/><stop offset="1" stop-color="#afe0e5"/></linearGradient><linearGradient id="linear-gradient-2" x1="288.28" y1="272.52" x2="288.28" y2="401.99" gradientTransform="translate(102.63 -398.37) rotate(45)" xlink:href="#linear-gradient"/><linearGradient id="linear-gradient-3" x1="652.4" y1="292.81" x2="652.4" y2="422.27" gradientTransform="translate(456.8 -607.31) rotate(90)" xlink:href="#linear-gradient"/><linearGradient id="linear-gradient-4" x1="924.41" y1="49.78" x2="924.41" y2="179.24" gradientTransform="translate(855.16 -504.68) rotate(135)" xlink:href="#linear-gradient"/><linearGradient id="linear-gradient-5" x1="944.7" y1="-314.49" x2="944.7" y2="-185.04" gradientTransform="translate(1064.11 -150.51) rotate(180)" xlink:href="#linear-gradient"/><linearGradient id="linear-gradient-6" x1="701.66" y1="-586.35" x2="701.66" y2="-456.89" gradientTransform="translate(961.48 247.86) rotate(-135)" xlink:href="#linear-gradient"/><linearGradient id="linear-gradient-7" x1="337.39" y1="-606.79" x2="337.39" y2="-477.33" gradientTransform="translate(607.31 456.8) rotate(-90)" xlink:href="#linear-gradient"/><linearGradient id="linear-gradient-8" x1="65.54" y1="-363.6" x2="65.54" y2="-234.14" gradientTransform="translate(208.94 354.17) rotate(-45)" xlink:href="#linear-gradient"/><linearGradient id="linear-gradient-9" x1="94.24" y1="172.11" x2="94.24" y2="196.88" gradientUnits="userSpaceOnUse"><stop offset="0" stop-color="#00a79c"/><stop offset="1" stop-color="#73cbce"/></linearGradient><linearGradient id="linear-gradient-10" x1="111.59" y1="172.11" x2="111.59" y2="196.88" xlink:href="#linear-gradient-9"/><linearGradient id="linear-gradient-11" x1="129.89" y1="172.11" x2="129.89" y2="196.88" xlink:href="#linear-gradient-9"/><linearGradient id="linear-gradient-12" x1="150.53" y1="172.11" x2="150.53" y2="196.88" xlink:href="#linear-gradient-9"/></defs><title>05</title><g id="Layer_2" data-name="Layer 2"><g id="Layer_1-2" data-name="Layer 1"><path class="cls-1" d="M76.41,122.17,45.3,91.06V11.5a3.57,3.57,0,0,0-7.14,0V83.92L18.81,64.57a3.57,3.57,0,0,0-5,5.05L38.42,94.27a3.54,3.54,0,0,0,2,2l31,31a3.57,3.57,0,0,0,5-5Z"/><path class="cls-2" d="M49.89,106.35v-44L106.15,6.09a3.57,3.57,0,1,0-5.05-5L49.89,52.25V24.89a3.57,3.57,0,1,0-7.13,0V59.75a3.49,3.49,0,0,0,0,2.83v43.77a3.57,3.57,0,0,0,7.14,0Z"/><path class="cls-3" d="M42.33,76.41,73.44,45.3H153a3.57,3.57,0,0,0,0-7.14H80.58L99.93,18.81a3.57,3.57,0,1,0-5.05-5L70.23,38.42a3.54,3.54,0,0,0-2,2L37.28,71.36a3.57,3.57,0,0,0,5,5Z"/><path class="cls-4" d="M58.15,49.89h44l56.26,56.26a3.57,3.57,0,1,0,5-5.05l-51.2-51.2H139.6a3.57,3.57,0,0,0,0-7.13H104.74a3.57,3.57,0,0,0-2.83,0H58.15a3.57,3.57,0,1,0,0,7.13Z"/><path class="cls-5" d="M88.08,42.33,119.2,73.44V153a3.57,3.57,0,0,0,7.14,0V80.58l19.34,19.35a3.57,3.57,0,0,0,5-5.05L126.08,70.23a3.57,3.57,0,0,0-2-2L93.13,37.28a3.57,3.57,0,1,0-5,5Z"/><path class="cls-6" d="M114.6,58.15v44L58.35,158.41a3.57,3.57,0,1,0,5,5l51.2-51.2V139.6a3.57,3.57,0,0,0,7.14,0V104.74a3.57,3.57,0,0,0,0-2.83V58.15a3.57,3.57,0,1,0-7.14,0Z"/><path class="cls-7" d="M122.17,88.08,91.05,119.2H11.5a3.57,3.57,0,0,0,0,7.14H83.91L64.57,145.68a3.57,3.57,0,0,0,5.05,5l24.65-24.65a3.57,3.57,0,0,0,2-2l31-30.95a3.57,3.57,0,0,0-5-5Z"/><path class="cls-8" d="M106.35,114.6h-44L6.09,58.35a3.56,3.56,0,1,0-5,5l51.2,51.21H24.89a3.57,3.57,0,0,0,0,7.14H59.75a3.57,3.57,0,0,0,2.83,0h43.77a3.57,3.57,0,1,0,0-7.14Z"/><path class="cls-9" d="M5.74,189.84v-7.91c0-5.17,3.9-7,8.34-7s9.85,1.2,7.31,5.92c0-2.42-3.9-3.69-7.31-3.69s-5.8,1.24-5.8,5.17v7c0,3.93,2.38,5.2,5.8,5.2s5.8-.67,5.8-4.9v-1.87H15.65c-2,0-1.81-2.54-1.81-2.54a5,5,0,0,0,2.32.45h6.26v4.41c0,5.05-3.9,6.68-8.34,6.68S5.74,195,5.74,189.84Z"/><path class="cls-9" d="M26.51,173.83c.15,0,2.41,0,2.41,1.51v16.07c0,1.82.55,4.51,2.18,4.51a2.76,2.76,0,0,1-1.78.75c-1.94,0-2.81-2-2.81-4.29Z"/><path class="cls-9" d="M46.06,192c0,3-2.08,4.86-6.53,4.86S33,195,33,192v-6.1c0-3.06,2.08-4.87,6.52-4.87s6.53,1.81,6.53,4.87Zm-2.42-5.65c0-2.12-.69-3.36-4.11-3.36s-4.11,1.24-4.11,3.36v5.2c0,2.11.7,3.35,4.11,3.35s4.11-1.24,4.11-3.35Z"/><path class="cls-9" d="M62.11,192c0,3-2.2,4.8-6.34,4.8-2.57,0-3.54-.84-5.77-1.09V173.89c.21,0,2.41,0,2.41,1.81v4.2a8,8,0,0,1-.3,2.75S53.17,181,56.82,181c2.85,0,5.29,1.78,5.29,4.77Zm-9.7,2.08a5.86,5.86,0,0,0,3.3.76c3.11,0,4-1.09,4-3.29v-5.35A3,3,0,0,0,56.43,183c-2,0-4,1.21-4,3Z"/><path class="cls-9" d="M74.93,185.73c0-1.54-.69-2.63-3.5-2.63s-4.72,1.09-4.72,3.21a3.94,3.94,0,0,1-.81-2.21c0-2,2.6-3.11,5.53-3.11,3.83,0,5.92,1.81,5.92,4.87v10.81a5,5,0,0,0-2-.39c-1.39,0-2.66.54-4.33.54-2.74,0-5.58-1.18-5.58-4.44C65.45,186.55,73.88,188.63,74.93,185.73Zm.09,2.39c-.57,2-7.16.69-7.16,4.29,0,1.33,1,2.48,3.6,2.48a7.35,7.35,0,0,0,3.56-.82Z"/><path class="cls-9" d="M81.28,173.83c.16,0,2.42,0,2.42,1.51v16.07c0,1.82.55,4.51,2.18,4.51a2.76,2.76,0,0,1-1.79.75c-1.93,0-2.81-2-2.81-4.29Z"/><path class="cls-10" d="M95.46,177.39v19.37s-2.54,0-2.54-1.51V177.39H88.15c-1.84,0-2.11-1.63-2.11-2.53,0,0,.54.45,2.59.45H99.84c2.06,0,2.6-.45,2.6-.45,0,.9-.27,2.53-2.11,2.53Z"/><path class="cls-11" d="M107.46,186v8.4h10.79c0,.12,0,2.08-1.51,2.08h-9.28s-2.53,0-2.53-1.51V175.31h13.32s0,2.08-1.51,2.08h-9.28v6.5h7c2.06,0,2.6-.45,2.6-.45,0,.9-.27,2.54-2.11,2.54Z"/><path class="cls-12" d="M124.27,182.35v7c0,3.93,2.69,5.2,6.11,5.2,3.11,0,7-1,7-3.69,2.54,4.72-2.87,5.92-7,5.92-4.44,0-8.64-1.81-8.64-7v-7.91c0-5.17,4.2-7,8.64-7,4.14,0,9.55,1.2,7,5.92,0-2.42-3.9-3.69-7-3.69C127,177.18,124.27,178.42,124.27,182.35Z"/><path class="cls-13" d="M156.22,186.58H144.83v10.18s-2.54,0-2.54-1.51V175s2.54,0,2.54,1.51v7.95h11.39V175s2.54,0,2.54,1.51v20.24s-2.54,0-2.54-1.51Z"/></g></g></svg>