<svg xmlns="http://www.w3.org/2000/svg" xmlns:xlink="http://www.w3.org/1999/xlink" viewBox="0 0 220.27 106.63"><defs><style>.cls-1{fill:#928d8c;}.cls-2{fill:url(#linear-gradient);}.cls-3{fill:url(#linear-gradient-2);}.cls-4{fill:url(#linear-gradient-3);}.cls-5{fill:url(#linear-gradient-4);}.cls-6{fill:url(#linear-gradient-5);}.cls-7{fill:url(#linear-gradient-6);}.cls-8{fill:url(#linear-gradient-7);}.cls-9{fill:url(#linear-gradient-8);}.cls-10{fill:url(#linear-gradient-9);}.cls-11{fill:url(#linear-gradient-10);}.cls-12{fill:url(#linear-gradient-11);}.cls-13{fill:url(#linear-gradient-12);}.cls-14{fill:url(#linear-gradient-13);}.cls-15{fill:url(#linear-gradient-14);}.cls-16{fill:url(#linear-gradient-15);}.cls-17{fill:url(#linear-gradient-16);}.cls-18{fill:url(#linear-gradient-17);}.cls-19{fill:url(#linear-gradient-18);}.cls-20{fill:url(#linear-gradient-19);}.cls-21{fill:url(#linear-gradient-20);}.cls-22{fill:url(#linear-gradient-21);}.cls-23{fill:url(#linear-gradient-22);}.cls-24{fill:url(#linear-gradient-23);}.cls-25{fill:url(#linear-gradient-24);}</style><linearGradient id="linear-gradient" x1="212.72" y1="19.8" x2="122.65" y2="76.49" gradientUnits="userSpaceOnUse"><stop offset="0" stop-color="#28a8e0"/><stop offset="1" stop-color="#beddf4"/></linearGradient><linearGradient id="linear-gradient-2" x1="220.23" y1="31.75" x2="130.17" y2="88.44" xlink:href="#linear-gradient"/><linearGradient id="linear-gradient-3" x1="226.98" y1="42.48" x2="136.92" y2="99.16" xlink:href="#linear-gradient"/><linearGradient id="linear-gradient-4" x1="234.34" y1="54.16" x2="144.27" y2="110.85" xlink:href="#linear-gradient"/><linearGradient id="linear-gradient-5" x1="19.92" y1="71.14" x2="119.44" y2="14.45" xlink:href="#linear-gradient"/><linearGradient id="linear-gradient-6" x1="22.33" y1="67.14" x2="139.04" y2="0.66" xlink:href="#linear-gradient"/><linearGradient id="linear-gradient-7" x1="21.3" y1="65.34" x2="138.01" y2="-1.15" xlink:href="#linear-gradient"/><linearGradient id="linear-gradient-8" x1="13.48" y1="67.4" x2="112.98" y2="10.72" xlink:href="#linear-gradient"/><linearGradient id="linear-gradient-9" x1="29.84" y1="88.56" x2="129.36" y2="31.87" xlink:href="#linear-gradient"/><linearGradient id="linear-gradient-10" x1="31.42" y1="85.03" x2="148.14" y2="18.54" xlink:href="#linear-gradient"/><linearGradient id="linear-gradient-11" x1="30.39" y1="83.22" x2="147.11" y2="16.74" xlink:href="#linear-gradient"/><linearGradient id="linear-gradient-12" x1="39.76" y1="105.97" x2="139.28" y2="49.28" xlink:href="#linear-gradient"/><linearGradient id="linear-gradient-13" x1="40.52" y1="102.92" x2="157.24" y2="36.43" xlink:href="#linear-gradient"/><linearGradient id="linear-gradient-14" x1="49.69" y1="123.39" x2="149.2" y2="66.7" xlink:href="#linear-gradient"/><linearGradient id="linear-gradient-15" x1="9.4" y1="57.3" x2="108.92" y2="0.61" gradientTransform="translate(16 29.17) rotate(-5.42)" xlink:href="#linear-gradient"/><linearGradient id="linear-gradient-16" x1="16.32" y1="35.4" x2="115.84" y2="-21.29" gradientTransform="translate(16 29.17) rotate(-5.42)" xlink:href="#linear-gradient"/><linearGradient id="linear-gradient-17" x1="6.44" y1="70.83" x2="123.16" y2="4.35" xlink:href="#linear-gradient"/><linearGradient id="linear-gradient-18" x1="15.61" y1="71.73" x2="115.12" y2="15.04" gradientTransform="translate(16 29.17) rotate(-5.42)" xlink:href="#linear-gradient"/><linearGradient id="linear-gradient-19" x1="15.77" y1="81.95" x2="132.49" y2="15.47" xlink:href="#linear-gradient"/><linearGradient id="linear-gradient-20" x1="8.63" y1="69.41" x2="125.34" y2="2.93" xlink:href="#linear-gradient"/><linearGradient id="linear-gradient-21" x1="21.81" y1="86.15" x2="121.33" y2="29.47" gradientTransform="translate(16 29.17) rotate(-5.42)" xlink:href="#linear-gradient"/><linearGradient id="linear-gradient-22" x1="25.11" y1="93.06" x2="141.83" y2="26.58" xlink:href="#linear-gradient"/><linearGradient id="linear-gradient-23" x1="17.95" y1="80.53" x2="134.7" y2="14.03" xlink:href="#linear-gradient"/><linearGradient id="linear-gradient-24" x1="16.33" y1="64.85" x2="115.86" y2="8.15" xlink:href="#linear-gradient"/></defs><title>06</title><g id="Layer_2" data-name="Layer 2"><g id="Layer_1-2" data-name="Layer 1"><path class="cls-1" d="M129,24.39a10.11,10.11,0,0,1,9.85-8.5c4.06,0,7.86,2.83,6.86,8.5l-.31,1.76h-5l.31-1.76c.42-2.4-.95-3.52-2.75-3.52a4,4,0,0,0-4,3.52l-3.24,18.37c-.43,2.4.94,3.52,2.75,3.52a4,4,0,0,0,4-3.52l1.15-6.55h-4l.78-4.39h8.94l-1.93,10.94a10.12,10.12,0,0,1-9.85,8.51c-4.06,0-7.86-2.84-6.86-8.51Z"/><path class="cls-1" d="M151,16.18h5L151.08,44c-.33,1.86.11,2.4,2,2.59l-.83,4.7c-4.59,0-7.22-1.18-6.21-6.94Z"/><path class="cls-1" d="M156.71,34.5a12.54,12.54,0,0,1,1.82-5,8.67,8.67,0,0,1,7.13-3.57c3,0,5.07,1.42,5.87,3.57a10.37,10.37,0,0,1,0,5l-1.44,8.16a12.59,12.59,0,0,1-1.82,5,8.66,8.66,0,0,1-7.12,3.57c-3,0-5.08-1.42-5.87-3.57a10.28,10.28,0,0,1,0-5Zm3.41,9c-.33,1.85.43,2.83,1.95,2.83s2.61-1,2.94-2.83l1.71-9.73c.33-1.85-.43-2.83-1.94-2.83s-2.62,1-2.95,2.83Z"/><path class="cls-1" d="M178.47,16.18h5l-2.16,12.27h.1a6.53,6.53,0,0,1,5-2.55c2.4,0,3.46.93,4,2.25.45,1,.36,2.44-.28,6l-1.66,9.43c-.48,2.74-1,4.25-1.77,5.33A5.51,5.51,0,0,1,182,51.27c-2.5,0-3.27-1.13-4.29-2.55l-.4,2.25h-5Zm6.81,17.64c.28-1.56,0-2.93-1.93-2.93a3.12,3.12,0,0,0-3,2.69l-1.7,9.62c-.32,1.81.43,3.08,1.95,3.08,1.71,0,2.68-1.37,3-3.37Z"/><path class="cls-1" d="M201.23,48.43h-.1c-1.63,1.81-2.89,2.84-5.28,2.84s-5.18-1.13-4.22-6.6c1-5.67,3.1-8.41,9.35-8.41.69,0,1.36.1,2.37.15l.46-2.59c.29-1.66-.12-2.93-2-2.93a3.62,3.62,0,0,0-3.27,2.49h-4.84a10.08,10.08,0,0,1,3.2-5.37,8.85,8.85,0,0,1,5.79-2.11c4.16,0,7,2.64,6.1,7.82l-3,17.25h-5Zm1.44-8.11a6.87,6.87,0,0,0-1.35-.15c-2.15,0-4.06.88-4.53,3.52-.33,1.9.42,3.18,2,3.18s2.9-1.18,3.25-3.18Z"/><path class="cls-1" d="M215.28,16.18h5L215.36,44c-.32,1.86.12,2.4,2,2.59l-.83,4.7c-4.59,0-7.22-1.18-6.2-6.94Z"/><path class="cls-2" d="M129.74,59.67H123.3l.92-5.25h18.47l-.92,5.25h-6.45l-5.94,33.67h-5.57Z"/><path class="cls-3" d="M148.42,54.42H165l-.93,5.25h-11l-2,11.42h9.62l-.93,5.25h-9.61l-2,11.42h11l-1,5.58H141.56Z"/><path class="cls-4" d="M184.3,84.65c-.85,4.8-5.48,9-10.45,9-4.26,0-8.81-2.08-7.56-9.18l3.78-21.42a10.77,10.77,0,0,1,10.65-9c5.14,0,8.28,3.88,7.33,9.29l-.39,2.19h-5.58l.33-1.86c.39-2.19-.6-4-2.73-4-2.78,0-3.78,1.91-4.24,4.53l-3.51,19.9c-.4,2.24.17,4,2.69,4,1.53,0,3.65-.88,4.19-3.94l.33-1.91h5.58Z"/><path class="cls-5" d="M197.43,54.42H203l-2.94,16.67H207l2.93-16.67h5.58l-6.86,38.92H203L206.09,76H199.2l-3,17.33h-5.58Z"/><path class="cls-6" d="M58.15,54.14a8.4,8.4,0,1,1-8.39-8.39A8.4,8.4,0,0,1,58.15,54.14Z"/><path class="cls-7" d="M38.91,61.56a6.79,6.79,0,1,1-6.79-6.79A6.79,6.79,0,0,1,38.91,61.56Z"/><path class="cls-8" d="M23,67.3a5.18,5.18,0,1,1-5.18-5.18A5.17,5.17,0,0,1,23,67.3Z"/><path class="cls-9" d="M7.14,73a3.57,3.57,0,1,1-3.57-3.57A3.57,3.57,0,0,1,7.14,73Z"/><path class="cls-10" d="M72.85,68.84a8.4,8.4,0,1,1-8.4-8.4A8.4,8.4,0,0,1,72.85,68.84Z"/><path class="cls-11" d="M53.61,76.26a6.79,6.79,0,1,1-6.79-6.79A6.79,6.79,0,0,1,53.61,76.26Z"/><path class="cls-12" d="M37.72,82a5.18,5.18,0,1,1-5.18-5.18A5.18,5.18,0,0,1,37.72,82Z"/><path class="cls-13" d="M87.55,83.54a8.4,8.4,0,1,1-8.4-8.4A8.41,8.41,0,0,1,87.55,83.54Z"/><path class="cls-14" d="M68.31,91a6.79,6.79,0,1,1-6.8-6.78A6.81,6.81,0,0,1,68.31,91Z"/><circle class="cls-15" cx="93.85" cy="98.23" r="8.4"/><path class="cls-16" d="M112.94,37.86a8.4,8.4,0,1,1,2.38-11.63A8.38,8.38,0,0,1,112.94,37.86Z"/><path class="cls-17" d="M117.76,15.4a8.4,8.4,0,1,1,2.38-11.63A8.38,8.38,0,0,1,117.76,15.4Z"/><path class="cls-18" d="M97.38,26.84a6.79,6.79,0,1,1,2.8-9.18A6.78,6.78,0,0,1,97.38,26.84Z"/><path class="cls-19" d="M108.12,60.32a8.4,8.4,0,1,1,2.37-11.64A8.4,8.4,0,0,1,108.12,60.32Z"/><path class="cls-20" d="M91.32,46.73a6.79,6.79,0,1,1,2.8-9.19A6.79,6.79,0,0,1,91.32,46.73Z"/><path class="cls-21" d="M78.79,35.4a5.18,5.18,0,1,1,2.13-7A5.18,5.18,0,0,1,78.79,35.4Z"/><path class="cls-22" d="M103.3,82.78a8.4,8.4,0,1,1,2.37-11.64A8.41,8.41,0,0,1,103.3,82.78Z"/><path class="cls-23" d="M85.27,66.61a6.79,6.79,0,1,1,2.79-9.19A6.81,6.81,0,0,1,85.27,66.61Z"/><path class="cls-24" d="M72.73,55.29a5.18,5.18,0,1,1,2.13-7A5.19,5.19,0,0,1,72.73,55.29Z"/><path class="cls-25" d="M60.19,44a3.57,3.57,0,1,1,1.47-4.82A3.57,3.57,0,0,1,60.19,44Z"/></g></g></svg>