<svg xmlns="http://www.w3.org/2000/svg" xmlns:xlink="http://www.w3.org/1999/xlink" viewBox="0 0 209.36 98.7"><defs><style>.cls-1{fill:url(#linear-gradient);}.cls-2{fill:#928d8c;}</style><linearGradient id="linear-gradient" x1="104.68" y1="-1.62" x2="104.68" y2="76.1" gradientUnits="userSpaceOnUse"><stop offset="0" stop-color="#50a4bc"/><stop offset="1" stop-color="#58bfbc"/></linearGradient></defs><title>07</title><g id="Layer_2" data-name="Layer 2"><g id="Layer_1-2" data-name="Layer 1"><path class="cls-1" d="M141.32,0H103.26S70.06,4.79,69.33,30h-.07v7.69h41.36L68,67.61H106.1s33.21-4.79,33.94-30h.06V30H98.76Z"/><path class="cls-2" d="M9.09,94.68a2.67,2.67,0,0,1,.7,1.7,2.27,2.27,0,0,1-2.5,2.32H2.93a2.88,2.88,0,0,1-2-.66A2.61,2.61,0,0,1,0,96.13a1.08,1.08,0,0,1,1.05-1.22A1,1,0,0,1,2,96c0,.61.32.7.87.7h4.3c.16,0,.65.06.65-.25s-.27-.47-.35-.59l-6.8-9A2.54,2.54,0,0,1,0,85.09a2.29,2.29,0,0,1,1.05-2,2.56,2.56,0,0,1,1.64-.37h4.2a2.7,2.7,0,0,1,2,.68,2.82,2.82,0,0,1,.94,1.95c0,.65-.32,1.18-1,1.18a.9.9,0,0,1-1-1c0-.7-.33-.8-1-.8H2.65c-.21,0-.67-.06-.67.29,0,.18.21.43.3.55Z"/><path class="cls-2" d="M17.46,98.7a2.93,2.93,0,0,1-2.45-1,3.3,3.3,0,0,1-.76-2.44V83.78c0-.66.28-1,1-1s1,.37,1,1V95.21c0,1.15.34,1.44,1.23,1.44h3.37c.89,0,1.23-.29,1.23-1.44V83.78c0-.66.28-1,1-1s1,.37,1,1V95.21a3.33,3.33,0,0,1-.75,2.44,3,3,0,0,1-2.46,1Z"/><path class="cls-2" d="M28.51,82.75h5.55c2.91,0,4.24,1.85,4.24,4.74A4,4,0,0,1,37,90.72a4.53,4.53,0,0,1,1.31,3.71,4,4,0,0,1-4.24,4.27H28.51Zm2,7h3.57a2,2,0,0,0,2.25-2.21c0-1.73-.45-2.69-2.25-2.69H30.49Zm0,7h3.57a2,2,0,0,0,2.25-2.22c0-1.72-.45-2.68-2.25-2.68H30.49Z"/><path class="cls-2" d="M51.86,94.68a2.66,2.66,0,0,1,.69,1.7,2.26,2.26,0,0,1-2.49,2.32H45.7a2.89,2.89,0,0,1-2-.66,2.64,2.64,0,0,1-.93-1.91,1.09,1.09,0,0,1,1.05-1.22,1,1,0,0,1,.93,1c0,.61.32.7.88.7h4.29c.17,0,.66.06.66-.25s-.28-.47-.36-.59l-6.79-9a2.5,2.5,0,0,1-.66-1.68,2.31,2.31,0,0,1,1.05-2,2.6,2.6,0,0,1,1.65-.37h4.2a2.71,2.71,0,0,1,2,.68,2.85,2.85,0,0,1,.93,1.95c0,.65-.32,1.18-1,1.18a.9.9,0,0,1-1-1c0-.7-.34-.8-1-.8h-4.2c-.22,0-.68-.06-.68.29,0,.18.22.43.3.55Z"/><path class="cls-2" d="M59,84.8v.74c0,.65-.28,1-1,1s-1-.37-1-1V82.75h9.79v2.79c0,.65-.28,1-1,1s-1-.37-1-1V84.8H62.9V97.67c0,.66-.28,1-1,1s-1-.37-1-1V84.8Z"/><path class="cls-2" d="M77.16,96.65h2.91a1,1,0,0,1,0,2H72.26a1,1,0,0,1,0-2h2.92V84.8H72.26a1,1,0,0,1,0-2h7.81a1,1,0,0,1,0,2H77.16Z"/><path class="cls-2" d="M87.51,84.8v.74c0,.65-.28,1-1,1s-1-.37-1-1V82.75h9.79v2.79c0,.65-.28,1-1,1s-1-.37-1-1V84.8H91.41V97.67c0,.66-.27,1-1,1s-1-.37-1-1V84.8Z"/><path class="cls-2" d="M103,98.7a2.93,2.93,0,0,1-2.45-1,3.29,3.29,0,0,1-.75-2.44V83.78c0-.66.27-1,1-1s1,.37,1,1V95.21c0,1.15.33,1.44,1.22,1.44h3.37c.89,0,1.23-.29,1.23-1.44V83.78c0-.66.28-1,1-1s1,.37,1,1V95.21a3.33,3.33,0,0,1-.75,2.44,3,3,0,0,1-2.46,1Z"/><path class="cls-2" d="M116,84.8v.74c0,.65-.28,1-1,1s-1-.37-1-1V82.75h9.79v2.79c0,.65-.28,1-1,1s-1-.37-1-1V84.8h-1.92V97.67c0,.66-.27,1-1,1s-1-.37-1-1V84.8Z"/><path class="cls-2" d="M137.09,96.65a1,1,0,0,1,0,2H128.3v-16h8.79a1,1,0,0,1,0,2h-6.81v4.9h2.91a1,1,0,0,1,0,2h-2.91v4.9Z"/><path class="cls-2" d="M164,89.5c.81,0,1.18.32,1.18,1.24S164.83,92,164,92h-4.64c-.81,0-1.19-.33-1.19-1.26s.38-1.24,1.19-1.24Z"/><path class="cls-2" d="M191.2,96.65h2.91a1,1,0,0,1,0,2h-7.8a1,1,0,0,1,0-2h2.91V84.8h-2.91a1,1,0,0,1,0-2h7.8a1,1,0,0,1,0,2H191.2Z"/><path class="cls-2" d="M201.55,84.8v.74c0,.65-.27,1-1,1s-1-.37-1-1V82.75h9.78v2.79c0,.65-.28,1-1,1s-1-.37-1-1V84.8h-1.92V97.67c0,.66-.28,1-1,1s-1-.37-1-1V84.8Z"/></g></g></svg>