<svg xmlns="http://www.w3.org/2000/svg" xmlns:xlink="http://www.w3.org/1999/xlink" viewBox="0 0 256.62 129.2"><defs><style>.cls-1{fill:url(#linear-gradient);}.cls-2{fill:url(#linear-gradient-2);}.cls-3{fill:url(#linear-gradient-3);}.cls-4{fill:url(#linear-gradient-4);}.cls-5{fill:url(#linear-gradient-5);}.cls-6{fill:url(#linear-gradient-6);}.cls-7{fill:url(#linear-gradient-7);}.cls-8{fill:#928d8c;}</style><linearGradient id="linear-gradient" x1="73.33" y1="12.87" x2="49.2" y2="64.52" gradientUnits="userSpaceOnUse"><stop offset="0" stop-color="#50a4bc"/><stop offset="1" stop-color="#58bfbc"/></linearGradient><linearGradient id="linear-gradient-2" x1="42.63" y1="19.53" x2="19.05" y2="50.4" xlink:href="#linear-gradient"/><linearGradient id="linear-gradient-3" x1="77.52" y1="72.24" x2="59" y2="113.22" xlink:href="#linear-gradient"/><linearGradient id="linear-gradient-4" x1="108.94" y1="45.42" x2="140.59" y2="45.42" xlink:href="#linear-gradient"/><linearGradient id="linear-gradient-5" x1="147.38" y1="45.42" x2="174.45" y2="45.42" xlink:href="#linear-gradient"/><linearGradient id="linear-gradient-6" x1="177.94" y1="45.42" x2="215.26" y2="45.42" xlink:href="#linear-gradient"/><linearGradient id="linear-gradient-7" x1="217.89" y1="45.42" x2="256.62" y2="45.42" xlink:href="#linear-gradient"/></defs><title>03</title><g id="Layer_2" data-name="Layer 2"><g id="Layer_1-2" data-name="Layer 1"><path class="cls-1" d="M67.74,58.57,57,64.79l-3.9-7.16L61.16,53V17.66L30.58,0,0,17.66V53L30.58,70.62l10.49-6.06L45,71.72l-7.81,4.51v35.31L67.74,129.2l30.58-17.66V76.23ZM30.58,60.5,8.76,47.91V22.71l21.82-12.6L52.4,22.71v25.2Zm59,46-21.82,12.6-21.82-12.6V81.28L67.74,68.69,89.56,81.28Z"/><polygon class="cls-2" points="12.03 24.6 30.58 13.89 49.13 24.6 49.13 46.02 30.58 56.73 12.03 46.02 12.03 24.6"/><polygon class="cls-3" points="49.19 83.17 67.74 72.47 86.29 83.17 86.29 104.59 67.74 115.3 49.19 104.59 49.19 83.17"/><path class="cls-4" d="M133.08,48.55H116.45V64.32h-7.51V26.51h7.51v14.8h16.63V26.51h7.51V64.32h-7.51Z"/><path class="cls-5" d="M147.38,26.51h26.85v7H154.89v7.94h14.53v7H154.89v8.91h19.56v7H147.38Z"/><path class="cls-6" d="M200.52,56.76c-2.49-3.62-4-5.78-4-5.78h-.05c-.06,0-1.57,2.16-4.22,5.83L187,64.32h-9.07L192.2,44.77,178.75,26.51h9.13L193,33.75c2.32,3.18,3.89,5.45,3.94,5.45H197c.1,0,1.62-2.32,3.72-5.5l4.87-7.19h9L201.33,44.82l13.93,19.5h-9.4Z"/><path class="cls-7" d="M228.7,56.76l-2.86,7.56h-8L233,26.51h8.48l15.12,37.81h-8.05l-2.86-7.56Zm11.23-15.12c-1.3-3.24-2.59-6.6-2.64-6.65h-.17c-.05,0-1.35,3.35-2.64,6.65L231.29,50h11.77Z"/><path class="cls-8" d="M126.87,81.21v30.85h-7.51V81.21h-12v-7h31.6v7Z"/><path class="cls-8" d="M144.09,74.25h26.84v7H151.6v8h14.52v7H151.6v8.91h19.55v7H144.09Z"/><path class="cls-8" d="M211.43,101c-2.91,7.29-9.78,11.72-17.93,11.72C182.32,112.76,174,104.87,174,93c0-11.61,8.37-19.55,19.55-19.55,8.75,0,15,4.75,17.5,10.7l-7.45,2a11.53,11.53,0,0,0-10.37-5.67c-7,0-11.67,5-11.67,12.53,0,7.72,5,12.58,11.61,12.58A11.56,11.56,0,0,0,204,99.09Z"/><path class="cls-8" d="M240.64,96.29H224v15.77h-7.51V74.25H224v14.8h16.64V74.25h7.51v37.81h-7.51Z"/></g></g></svg>