<?xml version="1.0" encoding="utf-8"?>
<!-- Generator: Adobe Illustrator 22.0.0, SVG Export Plug-In . SVG Version: 6.00 Build 0)  -->
<svg version="1.1" id="Layer_1" fill="#333" xmlns="http://www.w3.org/2000/svg" xmlns:xlink="http://www.w3.org/1999/xlink" x="0px" y="0px"
	 viewBox="0 0 489.5 489.5" style="enable-background:new 0 0 489.5 489.5;" xml:space="preserve">
<g>
	<g>
		<g>
			<path d="M319.3,172.8h-2.7V137c0-39.7-32.3-72-72-72s-72,32.3-72,72c0,5,4.1,9.1,9.1,9.1s9.1-4.1,9.1-9.1
				c0-29.7,24.2-53.9,53.9-53.9s53.9,24.2,53.9,53.9v35.8H169.9c-13,0-23.6,10.6-23.6,23.6v98.3c0,13,10.6,23.6,23.6,23.6h149.3
				c13,0,23.6-10.6,23.6-23.6v-98.3C342.8,183.4,332.3,172.8,319.3,172.8z M324.7,294.6c0,3-2.4,5.4-5.4,5.4H169.9
				c-3,0-5.4-2.4-5.4-5.4v-98.3c0-3,2.4-5.4,5.4-5.4h149.3c3,0,5.4,2.4,5.4,5.4L324.7,294.6L324.7,294.6z"/>
			<path d="M247.2,219.9c-6.6-1.3-13.5,2.4-16.3,8.7c-2.9,6.5-1,13.8,4.9,18.1c1.2,0.9,1.4,1.7,1.4,3c0,6.5,0,12.9,0,19.4l0,0
				c0,5.3,5.6,9.4,11.3,6.5c2.4-1.2,3.8-3.8,3.6-6.5l0,0c0-6.5,0-12.9,0-19.4c0-1.4,0.3-2.3,1.6-3.2c4.1-3,6.1-7.1,6.1-12.1
				C259.6,227.2,254.5,221.3,247.2,219.9z"/>
			<path d="M115.3,240.3H65c-4-13.9-16.7-24.1-31.9-24.1c-18.3,0-33.2,14.9-33.2,33.2s14.9,33.2,33.2,33.2
				c15.1,0,27.9-10.2,31.9-24.1h50.4c5,0,9.1-4.1,9.1-9.1C124.4,244.4,120.3,240.3,115.3,240.3z M33.1,264.4c-8.3,0-15-6.7-15-15
				c0-8.3,6.7-15,15-15s15,6.7,15,15C48.1,257.7,41.4,264.4,33.1,264.4z"/>
			<path d="M115.3,187H60.2c-9.9,0-18-8.1-18-18v-29.6c13.9-4,24.1-16.7,24.1-31.9c0-18.3-14.9-33.2-33.2-33.2S-0.1,89.2-0.1,107.5
				c0,15.1,10.2,27.9,24.1,31.9V169c0,19.9,16.2,36.1,36.1,36.1h55.2c5,0,9.1-4.1,9.1-9.1C124.4,191,120.3,187,115.3,187z M18,107.5
				c0-8.3,6.7-15,15-15s15,6.7,15,15s-6.7,15-15,15S18,115.8,18,107.5z"/>
			<path d="M115.3,293.6H60.2c-19.9,0-36.1,16.2-36.1,36.1v29.6C10.2,363.3,0,376,0,391.2c0,18.3,14.9,33.2,33.2,33.2
				s33.2-14.9,33.2-33.2c0-15.1-10.2-27.9-24.1-31.9v-29.6c0-9.9,8.1-18,18-18h55.2c5,0,9.1-4.1,9.1-9.1
				C124.4,297.7,120.3,293.6,115.3,293.6z M48.1,391.2c0,8.3-6.7,15-15,15s-15-6.7-15-15s6.7-15,15-15S48.1,382.9,48.1,391.2z"/>
			<path d="M456.1,216.2c-15.1,0-27.9,10.2-31.9,24.1h-50.4c-5,0-9.1,4.1-9.1,9.1s4.1,9.1,9.1,9.1h50.4c4,13.9,16.7,24.1,31.9,24.1
				c18.3,0,33.2-14.9,33.2-33.2S474.4,216.2,456.1,216.2z M456.1,264.4c-8.3,0-15-6.7-15-15c0-8.3,6.7-15,15-15s15,6.7,15,15
				C471.2,257.7,464.4,264.4,456.1,264.4z"/>
			<path d="M465.2,359.3v-29.6c0-19.9-16.2-36.1-36.1-36.1h-55.2c-5,0-9.1,4.1-9.1,9.1s4.1,9.1,9.1,9.1h55.2c9.9,0,18,8.1,18,18
				v29.6c-13.9,4-24.1,16.7-24.1,31.9c0,18.3,14.9,33.2,33.2,33.2c18.3,0,33.2-14.9,33.2-33.2C489.3,376.1,479.1,363.3,465.2,359.3z
				 M456.1,406.3c-8.3,0-15-6.7-15-15s6.7-15,15-15s15,6.7,15,15C471.2,399.5,464.4,406.3,456.1,406.3z"/>
			<path d="M373.9,205.1h55.2c19.9,0,36.1-16.2,36.1-36.1v-29.6c13.9-4,24.1-16.7,24.1-31.9c0-18.3-14.9-33.2-33.2-33.2
				c-18.3,0-33.2,14.9-33.2,33.2c0,15.1,10.2,27.9,24.1,31.9V169c0,9.9-8.1,18-18,18h-55.2c-5,0-9.1,4.1-9.1,9.1
				C364.8,201,368.9,205.1,373.9,205.1z M441.1,107.5c0-8.3,6.7-15,15-15s15,6.7,15,15s-6.7,15-15,15S441.1,115.8,441.1,107.5z"/>
		</g>
	</g>
</g>
</svg>
