<?xml version="1.0" encoding="iso-8859-1"?>
<!-- Generator: Adobe Illustrator 19.0.0, SVG Export Plug-In . SVG Version: 6.00 Build 0)  -->
<svg version="1.1" id="Capa_1" xmlns="http://www.w3.org/2000/svg" xmlns:xlink="http://www.w3.org/1999/xlink" x="0px" y="0px"
	 viewBox="0 0 470 470" style="enable-background:new 0 0 470 470;" xml:space="preserve">
<g>
	<path d="M355,235c0-35.447-15.453-67.348-39.972-89.335c-0.404-0.458-0.852-0.845-1.327-1.178C292.617,126.131,265.085,115,235,115
		c-30.083,0-57.614,11.129-78.698,29.484c-0.477,0.334-0.926,0.722-1.328,1.178C130.453,167.652,115,199.553,115,235
		s15.453,67.348,39.972,89.335c0.404,0.458,0.852,0.845,1.328,1.179C177.384,343.87,204.916,355,235,355
		c30.079,0,57.606-11.126,78.688-29.476c0.481-0.335,0.932-0.727,1.337-1.186C339.547,302.348,355,270.447,355,235z
		 M309.069,309.351c-6.032-4.737-12.467-8.865-19.217-12.336c5.041-16.01,8.151-34.531,8.777-54.515h41.101
		C337.883,268.536,326.505,291.98,309.069,309.351z M242.5,299.044c9.749,0.697,19.291,2.739,28.374,6.042
		c-0.897,2.092-1.824,4.143-2.808,6.11c-7.223,14.445-16.251,24.024-25.566,27.424V299.044z M242.5,283.99V242.5h41.109
		c-0.586,17.378-3.193,33.91-7.609,48.472C265.287,287.078,254.013,284.709,242.5,283.99z M242.5,227.5v-41.49
		c11.513-0.719,22.787-3.088,33.499-6.982c4.416,14.563,7.024,31.094,7.609,48.472H242.5z M242.5,170.956v-39.575
		c9.315,3.4,18.344,12.979,25.566,27.424c0.984,1.967,1.911,4.018,2.808,6.11C261.791,168.217,252.249,170.259,242.5,170.956z
		 M272.067,136.763c9.133,3.458,17.663,8.151,25.382,13.88c-4.097,3.035-8.392,5.757-12.851,8.148
		C280.983,150.41,276.77,142.995,272.067,136.763z M201.934,158.805c7.223-14.445,16.251-24.024,25.566-27.424v39.575
		c-9.749-0.697-19.291-2.739-28.374-6.042C200.023,162.823,200.95,160.772,201.934,158.805z M185.401,158.791
		c-4.459-2.391-8.754-5.113-12.851-8.148c7.719-5.729,16.249-10.422,25.382-13.88C193.23,142.995,189.017,150.41,185.401,158.791z
		 M227.5,186.01v41.49h-41.109c0.586-17.378,3.193-33.91,7.609-48.472C204.713,182.922,215.987,185.291,227.5,186.01z M227.5,242.5
		v41.49c-11.513,0.719-22.787,3.088-33.499,6.982c-4.416-14.563-7.024-31.094-7.609-48.472H227.5z M227.5,299.044v39.575
		c-9.315-3.4-18.344-12.979-25.566-27.424c-0.984-1.967-1.911-4.018-2.808-6.11C208.209,301.783,217.751,299.741,227.5,299.044z
		 M197.933,333.237c-9.133-3.458-17.663-8.151-25.382-13.88c4.097-3.035,8.392-5.756,12.851-8.148
		C189.017,319.59,193.23,327.005,197.933,333.237z M284.599,311.209c4.459,2.391,8.754,5.113,12.851,8.148
		c-7.719,5.729-16.249,10.423-25.382,13.88C276.77,327.005,280.983,319.59,284.599,311.209z M339.729,227.5h-41.101
		c-0.626-19.984-3.736-38.506-8.777-54.515c6.751-3.471,13.186-7.598,19.217-12.336C326.505,178.02,337.883,201.464,339.729,227.5z
		 M160.931,160.649c6.032,4.737,12.467,8.865,19.217,12.336c-5.041,16.01-8.151,34.531-8.777,54.515h-41.101
		C132.117,201.464,143.495,178.02,160.931,160.649z M130.271,242.5h41.101c0.626,19.984,3.736,38.506,8.777,54.515
		c-6.751,3.471-13.186,7.598-19.217,12.336C143.495,291.98,132.117,268.536,130.271,242.5z"/>
	<path d="M227.5,64.117V92.5c0,4.143,3.358,7.5,7.5,7.5s7.5-3.357,7.5-7.5V64.117c14.315-3.396,25-16.278,25-31.617
		C267.5,14.579,252.92,0,235,0s-32.5,14.579-32.5,32.5C202.5,47.839,213.185,60.721,227.5,64.117z M235,15
		c9.649,0,17.5,7.851,17.5,17.5S244.649,50,235,50s-17.5-7.851-17.5-17.5S225.351,15,235,15z"/>
	<path d="M242.5,405.883V377.5c0-4.143-3.358-7.5-7.5-7.5s-7.5,3.357-7.5,7.5v28.383c-14.315,3.396-25,16.278-25,31.617
		c0,17.921,14.58,32.5,32.5,32.5s32.5-14.579,32.5-32.5C267.5,422.161,256.815,409.279,242.5,405.883z M235,455
		c-9.649,0-17.5-7.851-17.5-17.5S225.351,420,235,420s17.5,7.851,17.5,17.5S244.649,455,235,455z"/>
	<path d="M437.5,202.5c-15.339,0-28.221,10.685-31.617,25H377.5c-4.142,0-7.5,3.357-7.5,7.5s3.358,7.5,7.5,7.5h28.383
		c3.396,14.315,16.278,25,31.617,25c17.92,0,32.5-14.579,32.5-32.5S455.42,202.5,437.5,202.5z M437.5,252.5
		c-9.649,0-17.5-7.851-17.5-17.5s7.851-17.5,17.5-17.5S455,225.351,455,235S447.149,252.5,437.5,252.5z"/>
	<path d="M92.5,242.5c4.142,0,7.5-3.357,7.5-7.5s-3.358-7.5-7.5-7.5H64.117c-3.396-14.315-16.278-25-31.617-25
		C14.58,202.5,0,217.079,0,235s14.58,32.5,32.5,32.5c15.339,0,28.221-10.685,31.617-25H92.5z M32.5,252.5
		c-9.649,0-17.5-7.851-17.5-17.5s7.851-17.5,17.5-17.5S50,225.351,50,235S42.149,252.5,32.5,252.5z"/>
	<path d="M91.811,124.311c6.122,0,11.983-1.688,17.061-4.833l20.062,20.063c1.464,1.464,3.384,2.196,5.303,2.196
		c1.919,0,3.839-0.732,5.303-2.196c2.929-2.93,2.929-7.678,0-10.607l-20.07-20.07c7.721-12.524,6.167-29.188-4.679-40.035
		c-6.139-6.138-14.3-9.519-22.981-9.519s-16.842,3.381-22.981,9.52s-9.519,14.3-9.519,22.98c0,8.682,3.38,16.843,9.519,22.98
		C74.968,120.931,83.13,124.311,91.811,124.311z M79.437,79.437c3.305-3.306,7.7-5.126,12.375-5.126s9.069,1.82,12.374,5.125
		c6.822,6.823,6.823,17.921,0.005,24.745c-3.315,3.312-7.707,5.13-12.379,5.13c-4.674,0-9.069-1.82-12.375-5.126
		c-3.305-3.305-5.125-7.699-5.125-12.374C74.311,87.137,76.131,82.741,79.437,79.437z"/>
	<path d="M378.189,345.689c-6.122,0-11.983,1.688-17.061,4.833l-20.062-20.063c-2.928-2.927-7.677-2.929-10.606,0
		c-2.929,2.93-2.929,7.678,0,10.607l20.07,20.07c-7.721,12.524-6.167,29.188,4.679,40.035c6.139,6.138,14.3,9.519,22.981,9.519
		s16.842-3.381,22.981-9.52s9.519-14.3,9.519-22.98c0-8.682-3.38-16.843-9.519-22.98
		C395.032,349.069,386.87,345.689,378.189,345.689z M390.563,390.563c-3.305,3.306-7.7,5.126-12.375,5.126s-9.069-1.82-12.374-5.125
		c-6.822-6.823-6.823-17.921-0.005-24.745c3.315-3.312,7.707-5.13,12.379-5.13c4.674,0,9.069,1.82,12.375,5.126
		c3.305,3.305,5.125,7.699,5.125,12.374C395.689,382.863,393.869,387.259,390.563,390.563z"/>
	<path d="M335.763,141.737c1.919,0,3.839-0.732,5.303-2.196l20.063-20.063c5.078,3.145,10.938,4.833,17.06,4.833
		c8.681,0,16.843-3.38,22.981-9.519c6.139-6.139,9.519-14.3,9.519-22.981c0-8.681-3.38-16.842-9.519-22.981
		c-6.139-6.138-14.3-9.519-22.981-9.519s-16.842,3.381-22.981,9.52c-10.845,10.846-12.399,27.51-4.678,40.033l-20.07,20.07
		c-2.929,2.93-2.929,7.678,0,10.607C331.924,141.005,333.843,141.737,335.763,141.737z M365.814,79.437
		c3.305-3.306,7.7-5.126,12.375-5.126s9.069,1.82,12.375,5.125c3.305,3.306,5.125,7.701,5.125,12.375
		c0,4.675-1.82,9.069-5.125,12.375c-3.306,3.305-7.7,5.125-12.375,5.125s-9.069-1.82-12.375-5.126
		C358.992,97.362,358.992,86.26,365.814,79.437z"/>
	<path d="M128.934,330.459l-20.063,20.063c-5.078-3.145-10.938-4.833-17.06-4.833c-8.681,0-16.843,3.38-22.981,9.519
		c-6.139,6.139-9.519,14.3-9.519,22.981c0,8.681,3.38,16.842,9.519,22.981c6.139,6.138,14.3,9.519,22.981,9.519
		s16.842-3.381,22.981-9.52c10.845-10.846,12.399-27.51,4.678-40.033l20.07-20.07c2.929-2.93,2.929-7.678,0-10.607
		C136.612,327.531,131.863,327.531,128.934,330.459z M104.186,390.563c-3.305,3.306-7.7,5.126-12.375,5.126
		s-9.069-1.82-12.375-5.125c-3.305-3.306-5.125-7.701-5.125-12.375c0-4.675,1.82-9.069,5.125-12.375
		c3.306-3.305,7.7-5.125,12.375-5.125s9.069,1.82,12.375,5.126C111.008,372.638,111.008,383.74,104.186,390.563z"/>
</g>
<g>
</g>
<g>
</g>
<g>
</g>
<g>
</g>
<g>
</g>
<g>
</g>
<g>
</g>
<g>
</g>
<g>
</g>
<g>
</g>
<g>
</g>
<g>
</g>
<g>
</g>
<g>
</g>
<g>
</g>
</svg>
