<?xml version="1.0" encoding="iso-8859-1"?>
<!-- Generator: Adobe Illustrator 19.0.0, SVG Export Plug-In . SVG Version: 6.00 Build 0)  -->
<svg version="1.1" id="Layer_1" xmlns="http://www.w3.org/2000/svg" xmlns:xlink="http://www.w3.org/1999/xlink" x="0px" y="0px"
	 viewBox="0 0 512 512" style="enable-background:new 0 0 512 512;" xml:space="preserve">
<g>
	<g>
		<path d="M268.804,325.743V204.578c0.145,0.009,0.265,0.094,0.41,0.102c0,0,1.946,0.119,5.385,0.119
			c19.891,0,69.803-3.644,103.535-37.376c40.55-40.542,37.419-106.155,37.265-108.928c-0.717-12.971-11.179-23.364-24.149-24.149
			c0,0-1.946-0.12-5.385-0.12c-19.891,0-69.803,3.644-103.535,37.385c-4.702,4.702-8.755,9.754-12.356,14.993
			c-3.575-17.707-11.332-38.963-28.006-55.637C214.029,3.021,173.086,0,156.787,0c-2.901,0-4.54,0.102-4.54,0.102
			c-12.954,0.802-23.433,11.187-24.149,24.149c-0.316,5.709-2.116,56.73,30.865,89.719c27.486,27.486,67.413,30.839,84.241,30.942
			v180.83C177.643,336.631,75.652,423.91,75.652,473.395c0,12.305,5.222,22.98,14.703,30.046c7.62,5.675,17.536,8.559,29.449,8.559
			h272.384c11.921,0,21.828-2.884,29.457-8.559c9.481-7.066,14.703-17.741,14.703-30.046
			C436.356,423.91,334.366,336.64,268.804,325.743z M300.437,89.711c27.682-27.682,72.021-29.884,85.436-29.884
			c2.543,0,3.977,0.077,3.977,0.077s3.115,56.491-29.807,89.412c-20.565,20.565-50.295,27.042-69.734,29.03l66.893-66.893
			c5-5.001,5-13.099,0-18.099c-5.001-5.001-13.099-5.001-18.099,0l-67.84,67.84C273.02,141.833,279.189,110.959,300.437,89.711z
			 M195.759,85.854l32.324,32.324c-15.164-1.98-36.096-7.39-51.012-22.306c-25.847-25.847-23.407-70.212-23.407-70.212
			s1.126-0.06,3.123-0.06c10.539,0,45.346,1.732,67.089,23.467c14.916,14.916,20.292,35.814,22.272,50.978l-32.29-32.29
			c-5.001-5.001-13.099-5.001-18.099,0C190.758,72.755,190.758,80.853,195.759,85.854z M392.196,486.4
			c-68.096,0-204.288,0-272.384,0c-68.104,0,68.096-136.192,136.192-136.192S460.292,486.4,392.196,486.4z"/>
	</g>
</g>
<g>
</g>
<g>
</g>
<g>
</g>
<g>
</g>
<g>
</g>
<g>
</g>
<g>
</g>
<g>
</g>
<g>
</g>
<g>
</g>
<g>
</g>
<g>
</g>
<g>
</g>
<g>
</g>
<g>
</g>
</svg>
