<?xml version="1.0" encoding="iso-8859-1"?>
<!-- Generator: Adobe Illustrator 19.0.0, SVG Export Plug-In . SVG Version: 6.00 Build 0)  -->
<svg version="1.1" id="Layer_1" xmlns="http://www.w3.org/2000/svg" xmlns:xlink="http://www.w3.org/1999/xlink" x="0px" y="0px"
	 viewBox="0 0 512 512" style="enable-background:new 0 0 512 512;" xml:space="preserve">
<g>
	<g>
		<path d="M435.2,358.4c-33.604,0-61.858,21.717-72.277,51.78l-107.75-17.963c0.179-2.765,0.828-5.402,0.828-8.218
			c0-30.72-11.273-58.53-29.312-80.597l87.322-87.322c12.552,8.943,27.81,14.319,44.39,14.319c42.419,0,76.8-34.381,76.8-76.8
			c0-42.419-34.381-76.8-76.8-76.8s-76.8,34.381-76.8,76.8c0,16.58,5.376,31.838,14.31,44.39l-87.322,87.313
			C186.53,267.273,158.72,256,128,256c-2.816,0-5.453,0.649-8.226,0.828l-17.954-107.75c30.063-10.419,51.78-38.673,51.78-72.277
			C153.6,34.381,119.219,0,76.8,0C34.381,0,0,34.381,0,76.8c0,42.359,34.287,76.681,76.621,76.783l17.903,107.401
			C40.175,275.772,0,324.966,0,384c0,70.69,57.31,128,128,128c59.034,0,108.228-40.175,123.017-94.524l107.401,17.903
			C358.519,477.713,392.849,512,435.2,512c42.419,0,76.8-34.381,76.8-76.8S477.619,358.4,435.2,358.4z M358.4,102.4
			c28.228,0,51.2,22.972,51.2,51.2s-22.972,51.2-51.2,51.2s-51.2-22.972-51.2-51.2S330.172,102.4,358.4,102.4z M76.8,128
			c-28.228,0-51.2-22.972-51.2-51.2s22.972-51.2,51.2-51.2S128,48.572,128,76.8S105.028,128,76.8,128z M128,486.4
			c-56.465,0-102.4-45.935-102.4-102.4c0-56.465,45.935-102.4,102.4-102.4S230.4,327.535,230.4,384
			C230.4,440.465,184.465,486.4,128,486.4z M435.2,486.4c-28.228,0-51.2-22.972-51.2-51.2s22.972-51.2,51.2-51.2
			s51.2,22.972,51.2,51.2S463.428,486.4,435.2,486.4z"/>
	</g>
</g>
<g>
</g>
<g>
</g>
<g>
</g>
<g>
</g>
<g>
</g>
<g>
</g>
<g>
</g>
<g>
</g>
<g>
</g>
<g>
</g>
<g>
</g>
<g>
</g>
<g>
</g>
<g>
</g>
<g>
</g>
</svg>
